{"title":"River.Cottage-Veg.Every.Day.S01E05-Power-AUSHD","uid":10035460,"size":365209780,"categoryP":"video","categoryS":"tv_shows","magnet":"?xt=urn:btih:9731ac135e2c6772b4601b641b18bd02d3402596&amp;dn=River.Cottage-Veg.Every.Day.S01E05-Power-AUSHD&amp;tr=udp%3A%2F%2Ftracker.openbittorrent.com%3A80&amp;tr=udp%3A%2F%2Fopen.demonii.com%3A1337&amp;tr=udp%3A%2F%2Ftracker.coppersurfer.tk%3A6969&amp;tr=udp%3A%2F%2Fexodus.desync.com%3A6969","seeders":1,"leechers":0,"uploader":"djflickit","files":1,"time":1398393114,"description":"Hugh whips up some delicious carb-loading dishes that provide plenty of flavor in addition to energy. He also makes a delicious campfire lunch for a team working with heavy horses to clear a forest.\n\n\nGeneral\n\nFormat                                   : AVI\nFormat/Info                              : Audio Video Interleave\nFile size                                : 348 MiB\nDuration                                 : 46mn 40s\nOverall bit rate                         : 1 043 Kbps\n\nVideo\nID                                       : 0\nFormat                                   : MPEG-4 Visual\nFormat profile                           : Simple@L3\nFormat settings, BVOP                    : No\nFormat settings, QPel                    : No\nFormat settings, GMC                     : No warppoints\nFormat settings, Matrix                  : Default (H.263)\nCodec ID                                 : XVID\nCodec ID/Hint                            : XviD\nDuration                                 : 46mn 40s\nBit rate                                 : 899 Kbps\nWidth                                    : 640 pixels\nHeight                                   : 360 pixels\nDisplay aspect ratio                     : 16:9\nFrame rate                               : 25.000 fps\nColor space                              : YUV\nChroma subsampling                       : 4:2:0\nBit depth                                : 8 bits\nScan type                                : Progressive\nCompression mode                         : Lossy\nBits/(Pixel*Frame)                       : 0.156\nStream size                              : 300 MiB (86%)\nWriting library                          : XviD 1.2.1 (UTC 2008-12-04)\n\nAudio\nID                                       : 1\nFormat                                   : MPEG Audio\nFormat version                           : Version 1\nFormat profile                           : Layer 3\nMode                                     : Joint stereo\nMode extension                           : MS Stereo\nCodec ID                                 : 55\nCodec ID/Hint                            : MP3\nDuration                                 : 46mn 40s\nBit rate mode                            : Constant\nBit rate                                 : 128 Kbps\nChannel(s)                               : 2 channels\nSampling rate                            : 44.1 KHz\nCompression mode                         : Lossy\nStream size                              : 42.7 MiB (12%)\nAlignment                                : Aligned on interleaves\nInterleave, duration                     : 26 ms (0.65 video frame)\nWriting library                          : LAME3.98.2\n\n","torrent":{"xt":"urn:btih:9731ac135e2c6772b4601b641b18bd02d3402596","amp;dn":"River.Cottage-Veg.Every.Day.S01E05-Power-AUSHD","amp;tr":["udp%3A%2F%2Ftracker.openbittorrent.com%3A80","udp%3A%2F%2Fopen.demonii.com%3A1337","udp%3A%2F%2Ftracker.coppersurfer.tk%3A6969","udp%3A%2F%2Fexodus.desync.com%3A6969"],"infoHash":"9731ac135e2c6772b4601b641b18bd02d3402596","infoHashBuffer":{"type":"Buffer","data":[151,49,172,19,94,44,103,114,180,96,27,100,27,24,189,2,211,64,37,150]},"announce":[],"urlList":[]}}